<svg width="154" height="32" viewBox="0 0 154 32" fill="none" xmlns="http://www.w3.org/2000/svg">
  <path d="M51.8351 19.6656C51.2868 20.3302 50.6632 20.8454 49.9644 21.2147C49.2337 21.5988 48.398 21.7914 47.4564 21.7914C46.671 21.7914 45.9334 21.6535 45.2426 21.3788C44.5517 21.1052 43.951 20.7166 43.4414 20.2139C42.9307 19.7112 42.5271 19.1037 42.2284 18.389C41.9309 17.6755 41.7816 16.8787 41.7816 15.9999C41.7816 15.1211 41.9309 14.3243 42.2284 13.6096C42.5271 12.8961 42.9307 12.2874 43.4414 11.7847C43.951 11.2832 44.5517 10.8945 45.2426 10.6198C45.9334 10.3451 46.671 10.2072 47.4564 10.2072C48.3513 10.2072 49.1242 10.3804 49.7751 10.7258C50.4272 11.0712 51.0041 11.534 51.5056 12.1153L53.7434 9.94844C52.942 9.05367 52.0278 8.3709 50.9995 7.90014C49.9712 7.42939 48.7822 7.19458 47.4325 7.19458C46.1762 7.19458 45.0111 7.42141 43.9361 7.87735C42.8611 8.33215 41.9309 8.95222 41.1455 9.73643C40.3611 10.5218 39.741 11.4519 39.285 12.5268C38.8301 13.6016 38.6021 14.7597 38.6021 15.9999C38.6021 17.24 38.8301 18.397 39.285 19.4718C39.741 20.5479 40.3611 21.4768 41.1455 22.2622C41.9309 23.0475 42.8611 23.6665 43.9361 24.1224C45.0111 24.5772 46.1762 24.8052 47.4325 24.8052C48.8301 24.8052 50.0932 24.5419 51.2241 24.0164C51.8214 23.7383 52.3755 23.3929 52.8896 22.9803C52.7095 22.6646 52.5499 22.334 52.4097 21.9898C52.1133 21.2603 51.9206 20.4817 51.8351 19.6656Z" fill="white"/>
  <path d="M65.5058 16.188C65.2003 15.4345 64.7762 14.7871 64.2347 14.2457C63.6932 13.7042 63.0491 13.2802 62.3036 12.9736C61.558 12.6681 60.7384 12.5154 59.8435 12.5154C58.9486 12.5154 58.1278 12.6681 57.3823 12.9736C56.6367 13.2802 55.9938 13.7042 55.4523 14.2457C54.9108 14.7871 54.4867 15.4345 54.1801 16.188C53.8745 16.9414 53.7206 17.7655 53.7206 18.6603C53.7206 19.5551 53.8745 20.378 54.1801 21.1315C54.4867 21.8849 54.9108 22.5323 55.4523 23.0738C55.9938 23.6163 56.6367 24.0392 57.3823 24.3458C58.1278 24.6513 58.9486 24.8052 59.8435 24.8052C60.7384 24.8052 61.558 24.6513 62.3036 24.3458C63.0491 24.0392 63.6932 23.6163 64.2347 23.0738C64.7762 22.5323 65.2003 21.8849 65.5058 21.1315C65.8125 20.378 65.9652 19.5551 65.9652 18.6603C65.9652 17.7655 65.8125 16.9414 65.5058 16.188ZM62.6331 20.0486C62.4689 20.4578 62.2455 20.8021 61.9627 21.0847C61.68 21.3674 61.354 21.5828 60.9858 21.7322C60.6164 21.8815 60.2357 21.9556 59.8435 21.9556C59.4514 21.9556 59.0501 21.8815 58.6898 21.7322C58.3285 21.5828 58.007 21.3674 57.7243 21.0847C57.4416 20.8021 57.2181 20.4578 57.0528 20.0486C56.8887 19.6405 56.8054 19.1778 56.8054 18.6603C56.8054 18.1428 56.8887 17.6789 57.0528 17.2708C57.2181 16.8627 57.4416 16.5174 57.7243 16.2347C58.007 15.952 58.3285 15.7366 58.6898 15.5873C59.0501 15.4379 59.4354 15.3639 59.8435 15.3639C60.2516 15.3639 60.6164 15.4379 60.9858 15.5873C61.354 15.7366 61.68 15.952 61.9627 16.2347C62.2455 16.5174 62.4689 16.8627 62.6331 17.2708C62.7984 17.6789 62.8804 18.1417 62.8804 18.6603C62.8804 19.1789 62.7984 19.6405 62.6331 20.0486Z" fill="white"/>
  <path d="M67.8964 12.8915V24.4279H70.9812V12.8915H67.8964Z" fill="white"/>
  <path d="M70.9812 7.19458H67.8964V10.279H70.9812V7.19458Z" fill="white"/>
  <path d="M84.5083 15.4231C84.327 14.819 84.0602 14.3004 83.7068 13.8684C83.3546 13.4375 82.9031 13.1035 82.3537 12.8676C81.8042 12.6328 81.1681 12.5154 80.4465 12.5154C79.661 12.5154 78.9622 12.6841 78.35 13.0215C77.7379 13.3589 77.2511 13.8182 76.8909 14.3984H76.7016V12.8915H73.8061V24.4279H76.8909V18.7777C76.8909 18.3069 76.949 17.8635 77.0676 17.4475C77.185 17.0314 77.3571 16.6701 77.5851 16.3646C77.8131 16.058 78.0879 15.8152 78.4093 15.634C78.7308 15.4539 79.1036 15.3639 79.5277 15.3639C80.2344 15.3639 80.7714 15.5633 81.1407 15.9646C81.509 16.3646 81.6936 16.9802 81.6936 17.8122V24.4279H84.7784V17.4361C84.7784 16.6975 84.6884 16.0272 84.5083 15.4231Z" fill="white"/>
  <path d="M105.24 15.2818C105.068 14.7084 104.813 14.2183 104.475 13.8102C104.138 13.4022 103.71 13.0842 103.191 12.8562C102.674 12.6294 102.062 12.5154 101.355 12.5154C100.413 12.5154 99.6131 12.7228 98.953 13.1389C98.2941 13.5549 97.7834 14.053 97.4232 14.6344C97.1712 14.0371 96.7483 13.5355 96.1509 13.1275C95.5547 12.7194 94.8172 12.5154 93.9382 12.5154C93.1847 12.5154 92.4973 12.6875 91.8783 13.0329C91.257 13.3782 90.7668 13.833 90.4065 14.3984H90.2173V12.8915H87.3217V24.4279H90.4065V18.8244C90.4065 18.3388 90.4613 17.8829 90.5707 17.4589C90.6801 17.0349 90.8375 16.6701 91.0415 16.3646C91.2456 16.058 91.4975 15.8152 91.795 15.634C92.0937 15.4539 92.4391 15.3639 92.8313 15.3639C94.181 15.3639 94.8559 16.1492 94.8559 17.7176V24.4279H97.9407V18.8244C97.9407 18.3388 98 17.8829 98.1174 17.4589C98.2348 17.0349 98.4001 16.6701 98.6122 16.3646C98.8242 16.058 99.0864 15.8152 99.401 15.634C99.7145 15.4539 100.076 15.3639 100.484 15.3639C101.771 15.3639 102.415 16.1492 102.415 17.7176V24.4279H105.5V17.1534C105.5 16.4786 105.413 15.854 105.24 15.2818Z" fill="white"/>
  <path d="M118.78 16.164C118.528 15.4265 118.16 14.7871 117.673 14.2457C117.186 13.7042 116.582 13.2802 115.86 12.9736C115.137 12.6681 114.313 12.5154 113.388 12.5154C112.462 12.5154 111.704 12.6795 110.974 13.0089C110.243 13.3395 109.612 13.7829 109.078 14.3391C108.545 14.8965 108.129 15.5485 107.83 16.294C107.531 17.0394 107.383 17.8282 107.383 18.6603C107.383 19.5551 107.536 20.3746 107.843 21.1201C108.148 21.8655 108.576 22.513 109.125 23.0624C109.675 23.6118 110.322 24.0392 111.068 24.3458C111.813 24.6513 112.626 24.8052 113.505 24.8052C114.808 24.8052 115.91 24.5145 116.813 23.9332C117.716 23.353 118.434 22.5916 118.968 21.6501L116.402 20.378C116.134 20.8647 115.769 21.2694 115.306 21.5908C114.843 21.9134 114.258 22.0741 113.552 22.0741C113.19 22.0741 112.838 22.0228 112.493 21.9202C112.147 21.8188 111.829 21.6535 111.538 21.4267C111.248 21.1987 111.005 20.916 110.809 20.5786C110.613 20.2412 110.483 19.8366 110.42 19.3658H119.109C119.109 19.2724 119.117 19.1858 119.133 19.1071C119.133 19.0285 119.14 18.9418 119.156 18.8484V18.5657C119.156 17.7028 119.03 16.9026 118.78 16.164ZM110.585 17.1762C110.79 16.5014 111.142 15.9759 111.644 15.5987C112.147 15.2225 112.727 15.0344 113.388 15.0344C113.858 15.0344 114.262 15.1051 114.6 15.2464C114.937 15.3878 115.219 15.5679 115.447 15.7879C115.675 16.0079 115.848 16.2427 115.966 16.4934C116.084 16.7453 116.15 16.9733 116.166 17.1762H110.585Z" fill="white"/>
  <path d="M128.563 12.6465C128.272 12.5587 127.923 12.5154 127.515 12.5154C127.186 12.5154 126.852 12.569 126.514 12.6761C126.177 12.7844 125.864 12.9257 125.573 13.1001C125.282 13.2757 125.019 13.4808 124.784 13.7156C124.548 13.9516 124.36 14.2103 124.219 14.493H124.03V12.8915H121.134V24.4279H124.219V18.7481C124.219 18.275 124.286 17.8373 124.419 17.435C124.553 17.0326 124.741 16.6815 124.983 16.3817C125.227 16.082 125.522 15.8483 125.867 15.683C126.212 15.5177 126.597 15.4345 127.021 15.4345C127.35 15.4345 127.629 15.4619 127.856 15.5166C128.084 15.5724 128.293 15.6465 128.481 15.74L129.305 12.9861C129.101 12.8459 128.854 12.7331 128.563 12.6465Z" fill="white"/>
  <path d="M138.134 20.2606C137.867 20.81 137.511 21.2306 137.064 21.5202C136.616 21.8108 136.07 21.9556 135.427 21.9556C135.019 21.9556 134.634 21.8781 134.273 21.7208C133.912 21.5635 133.594 21.3435 133.319 21.0608C133.044 20.7793 132.829 20.4339 132.671 20.0258C132.515 19.6178 132.436 19.1618 132.436 18.6603C132.436 18.1588 132.515 17.7028 132.671 17.2947C132.829 16.8867 133.044 16.5413 133.319 16.2586C133.594 15.9759 133.912 15.756 134.273 15.5987C134.634 15.4425 135.019 15.3639 135.427 15.3639C136.055 15.3639 136.577 15.5018 136.993 15.7753C137.408 16.05 137.75 16.4547 138.017 16.9881L140.843 15.8107C140.419 14.8384 139.751 14.0451 138.841 13.433C137.93 12.8209 136.808 12.5154 135.473 12.5154C134.578 12.5154 133.759 12.6681 133.013 12.9736C132.268 13.2802 131.624 13.7042 131.082 14.2457C130.541 14.7871 130.117 15.4345 129.811 16.188C129.504 16.9414 129.352 17.7655 129.352 18.6603C129.352 19.5551 129.504 20.3746 129.811 21.1201C130.117 21.8655 130.541 22.513 131.082 23.0624C131.624 23.6118 132.268 24.0392 133.013 24.3458C133.759 24.6513 134.578 24.8052 135.473 24.8052C136.823 24.8052 137.949 24.4951 138.852 23.8751C139.755 23.255 140.457 22.4582 140.96 21.4848L138.134 20.2606Z" fill="white"/>
  <path d="M153.464 16.164C153.213 15.4265 152.844 14.7871 152.357 14.2457C151.87 13.7042 151.266 13.2802 150.544 12.9736C149.821 12.6681 148.997 12.5154 148.072 12.5154C147.146 12.5154 146.388 12.6795 145.658 13.0089C144.929 13.3395 144.296 13.7829 143.762 14.3391C143.229 14.8965 142.813 15.5485 142.514 16.294C142.217 17.0394 142.067 17.8282 142.067 18.6603C142.067 19.5551 142.22 20.3746 142.527 21.1201C142.832 21.8655 143.26 22.513 143.809 23.0624C144.359 23.6118 145.006 24.0392 145.752 24.3458C146.497 24.6513 147.31 24.8052 148.189 24.8052C149.492 24.8052 150.594 24.5145 151.497 23.9332C152.4 23.353 153.118 22.5916 153.652 21.6501L151.086 20.378C150.819 20.8647 150.453 21.2694 149.99 21.5908C149.527 21.9134 148.943 22.0741 148.237 22.0741C147.876 22.0741 147.522 22.0228 147.177 21.9202C146.831 21.8188 146.513 21.6535 146.224 21.4267C145.933 21.1987 145.689 20.916 145.493 20.5786C145.297 20.2412 145.167 19.8366 145.105 19.3658H153.793C153.793 19.2724 153.801 19.1858 153.817 19.1071C153.817 19.0285 153.825 18.9418 153.841 18.8484V18.5657C153.841 17.7028 153.715 16.9026 153.464 16.164ZM145.27 17.1762C145.474 16.5014 145.827 15.9759 146.33 15.5987C146.831 15.2225 147.413 15.0344 148.072 15.0344C148.542 15.0344 148.946 15.1051 149.285 15.2464C149.622 15.3878 149.905 15.5679 150.132 15.7879C150.36 16.0079 150.532 16.2427 150.65 16.4934C150.768 16.7453 150.834 16.9733 150.85 17.1762H145.27Z" fill="white"/>
  <path d="M7.06672 17.027V20.4671L14.8049 24.9352L22.5443 20.4671V17.027H24.6008V21.6548L14.8049 27.3095L5.00904 21.6548V17.027H7.06672Z" fill="white"/>
  <path d="M28.6638 8.00057V24.0006L14.8049 32L11.4397 30.0577L9.6579 29.0284L0.947266 24.0006V17.027H3.0038V22.8129L10.6862 27.248L12.468 28.2761L14.8049 29.6257L26.6072 22.8129V9.18715L14.8049 2.37544L3.0038 9.18715V13.4274H5.00904V10.3452L14.8049 4.69046L24.6008 10.3452V14.9696H22.5443V11.5329L14.8049 7.06476L7.06671 11.5329V14.9696H0.947266V8.00057L14.8049 0L28.6638 8.00057Z" fill="white"/>
  <path d="M20.4524 14.9696V12.7401L14.8049 9.4801L9.15745 12.7401V19.26L14.8049 22.5199L20.4524 19.26V17.027H18.3959V18.0723L14.8061 20.1445L11.2163 18.0723V13.9266L14.8061 11.8544L18.3959 13.9266V14.9696H20.4524Z" fill="white"/>
</svg>
